<svg width="130" height="33" viewBox="0 0 130 33" fill="none" xmlns="http://www.w3.org/2000/svg">
<path d="M121.511 29.8283C120.721 29.8283 120.118 29.6204 119.703 29.2047C119.287 28.7889 119.079 28.1964 119.079 27.4273V16.3575C119.079 15.5884 119.276 15.0063 119.671 14.6113C120.087 14.1956 120.659 13.9877 121.386 13.9877C122.135 13.9877 122.706 14.1956 123.101 14.6113C123.496 15.0063 123.694 15.5884 123.694 16.3575V17.979H123.382C123.631 16.7317 124.182 15.7651 125.035 15.0791C125.887 14.393 126.989 14.0085 128.34 13.9253C128.86 13.8837 129.255 14.0189 129.525 14.3307C129.816 14.6217 129.972 15.1102 129.993 15.7962C130.034 16.4407 129.899 16.95 129.587 17.3242C129.296 17.6984 128.797 17.927 128.091 18.0102L127.373 18.0726C126.188 18.1765 125.305 18.5195 124.723 19.1016C124.162 19.6836 123.881 20.5256 123.881 21.6273V27.4273C123.881 28.1964 123.673 28.7889 123.257 29.2047C122.862 29.6204 122.28 29.8283 121.511 29.8283Z" fill="#111111"/>
<path d="M109.917 29.8892C108.108 29.8892 106.549 29.567 105.239 28.9225C103.95 28.2573 102.952 27.3322 102.246 26.1473C101.56 24.9416 101.217 23.528 101.217 21.9065C101.217 20.3266 101.549 18.9442 102.215 17.7593C102.88 16.5535 103.805 15.6181 104.99 14.9528C106.195 14.2668 107.557 13.9238 109.075 13.9238C110.176 13.9238 111.174 14.1109 112.068 14.4851C112.962 14.8385 113.731 15.3582 114.376 16.0442C115.02 16.7095 115.509 17.5306 115.841 18.5076C116.174 19.4639 116.34 20.5345 116.34 21.7194C116.34 22.1144 116.215 22.4158 115.966 22.6237C115.716 22.8108 115.353 22.9043 114.875 22.9043H105.083V20.4721H112.941L112.442 20.9087C112.442 20.0564 112.318 19.3496 112.068 18.7883C111.819 18.2062 111.455 17.7697 110.977 17.4786C110.519 17.1876 109.948 17.0421 109.262 17.0421C108.493 17.0421 107.838 17.2188 107.297 17.5722C106.757 17.9256 106.341 18.4349 106.05 19.1001C105.759 19.7653 105.613 20.5657 105.613 21.5011V21.7506C105.613 23.3305 105.977 24.4946 106.705 25.243C107.453 25.9914 108.555 26.3656 110.01 26.3656C110.509 26.3656 111.081 26.3032 111.725 26.1785C112.37 26.0538 112.972 25.8563 113.534 25.586C114.012 25.3574 114.438 25.2846 114.812 25.3677C115.186 25.4301 115.477 25.5964 115.685 25.8667C115.893 26.1369 116.008 26.4487 116.028 26.8021C116.07 27.1555 115.997 27.5089 115.81 27.8623C115.623 28.1949 115.311 28.4756 114.875 28.7043C114.168 29.0992 113.367 29.3903 112.474 29.5774C111.6 29.7852 110.748 29.8892 109.917 29.8892Z" fill="#111111"/>
<path d="M87.1908 29.828C86.4216 29.828 85.8292 29.6202 85.4134 29.2044C85.0184 28.7886 84.8209 28.1962 84.8209 27.427V9.68424C84.8209 8.89429 85.0184 8.30183 85.4134 7.90685C85.8292 7.49109 86.4216 7.2832 87.1908 7.2832C87.9392 7.2832 88.5108 7.49109 88.9058 7.90685C89.3216 8.30183 89.5295 8.89429 89.5295 9.68424V20.5669H89.5918L94.1133 15.5465C94.5706 15.0268 94.9864 14.6422 95.3606 14.3928C95.7555 14.1225 96.2752 13.9874 96.9197 13.9874C97.5641 13.9874 98.0526 14.1537 98.3852 14.4863C98.7386 14.8189 98.9153 15.2243 98.9153 15.7024C98.9361 16.1598 98.7386 16.6275 98.3229 17.1056L93.552 22.4378V20.6604L98.853 26.7722C99.248 27.2503 99.4143 27.7284 99.3519 28.2066C99.3103 28.6847 99.1024 29.0797 98.7282 29.3915C98.3541 29.6825 97.8759 29.828 97.2939 29.828C96.5871 29.828 96.0154 29.6929 95.5788 29.4227C95.1631 29.1524 94.7369 28.7367 94.3004 28.1754L89.5918 22.9367H89.5295V27.427C89.5295 29.0277 88.7499 29.828 87.1908 29.828Z" fill="#111111"/>
<path d="M72.6397 29.8892C71.5172 29.8892 70.509 29.6709 69.6151 29.2344C68.7212 28.7978 68.0248 28.2053 67.5258 27.457C67.0269 26.7086 66.7775 25.8667 66.7775 24.9312C66.7775 23.8086 67.0685 22.9251 67.6506 22.2807C68.2326 21.6155 69.1785 21.1477 70.4882 20.8775C71.7978 20.5865 73.5336 20.4409 75.6956 20.4409H77.3483V22.8732H75.7268C74.6666 22.8732 73.8039 22.9355 73.1387 23.0603C72.4942 23.1642 72.0265 23.3513 71.7355 23.6215C71.4652 23.8918 71.3301 24.266 71.3301 24.7441C71.3301 25.3262 71.5276 25.8043 71.9226 26.1785C72.3383 26.5527 72.9308 26.7398 73.6999 26.7398C74.3028 26.7398 74.8329 26.6046 75.2902 26.3344C75.7684 26.0434 76.1426 25.6588 76.4128 25.1807C76.6831 24.6817 76.8182 24.1205 76.8182 23.4968V19.9108C76.8182 18.9962 76.6103 18.3517 76.1945 17.9775C75.7788 17.5826 75.072 17.3851 74.0741 17.3851C73.5128 17.3851 72.8996 17.4578 72.2344 17.6033C71.5899 17.7281 70.8727 17.9464 70.0828 18.2582C69.6255 18.4661 69.2201 18.518 68.8667 18.4141C68.5133 18.2894 68.243 18.0815 68.0559 17.7904C67.8688 17.4786 67.7753 17.146 67.7753 16.7926C67.7753 16.4184 67.8792 16.065 68.0871 15.7324C68.295 15.379 68.638 15.1192 69.1161 14.9528C70.0932 14.5579 71.0079 14.2876 71.8602 14.1421C72.7333 13.9966 73.5336 13.9238 74.2612 13.9238C75.8619 13.9238 77.1716 14.1629 78.1902 14.641C79.2296 15.0984 80.0092 15.8156 80.5289 16.7926C81.0486 17.7489 81.3084 18.9858 81.3084 20.5033V27.4258C81.3084 28.1949 81.1213 28.7874 80.7472 29.2032C80.373 29.6189 79.8325 29.8268 79.1257 29.8268C78.4189 29.8268 77.868 29.6189 77.473 29.2032C77.0988 28.7874 76.9117 28.1949 76.9117 27.4258V26.272L77.13 26.4591C77.0053 27.1659 76.735 27.7792 76.3193 28.2989C75.9243 28.7978 75.415 29.1928 74.7913 29.4838C74.1677 29.7541 73.4505 29.8892 72.6397 29.8892Z" fill="#111111"/>
<path d="M42.799 29.828C42.0922 29.828 41.5517 29.6305 41.1775 29.2356C40.8033 28.8406 40.6162 28.2897 40.6162 27.5829V9.52833C40.6162 8.82153 40.8137 8.27064 41.2087 7.87567C41.6244 7.48069 42.1857 7.2832 42.8925 7.2832C43.5162 7.2832 44.0047 7.40793 44.3581 7.65739C44.7323 7.88606 45.0753 8.29143 45.3871 8.8735L52.5902 22.0325H51.53L58.7332 8.8735C59.045 8.29143 59.3776 7.88606 59.731 7.65739C60.1052 7.40793 60.5937 7.2832 61.1966 7.2832C61.9034 7.2832 62.4438 7.48069 62.818 7.87567C63.213 8.27064 63.4105 8.82153 63.4105 9.52833V27.5829C63.4105 28.2897 63.2234 28.8406 62.8492 29.2356C62.475 29.6305 61.9345 29.828 61.2277 29.828C60.5209 29.828 59.97 29.6305 59.5751 29.2356C59.2009 28.8406 59.0138 28.2897 59.0138 27.5829V14.9541H59.6998L53.8999 25.3378C53.6504 25.7328 53.3802 26.0342 53.0891 26.2421C52.8189 26.4292 52.4551 26.5227 51.9978 26.5227C51.5404 26.5227 51.1662 26.4188 50.8752 26.2109C50.5842 26.003 50.3243 25.712 50.0956 25.3378L44.2334 14.9229H44.9817V27.5829C44.9817 28.2897 44.7946 28.8406 44.4205 29.2356C44.0671 29.6305 43.5266 29.828 42.799 29.828Z" fill="#111111"/>
<path d="M13.6524 30.5286C12.0979 30.3303 9.64509 29.2246 8.01491 27.9873C6.89344 27.1361 6.11236 26.1526 5.55743 24.8931C5.30602 24.3225 4.99235 23.4384 4.94497 23.1669C4.93003 23.0813 4.84692 22.7028 4.76027 22.3258C4.67363 21.9487 4.52431 21.2617 4.42846 20.799C3.77141 17.6278 3.53069 17.1445 1.65831 15.2378C0.885361 14.4506 0.513358 14.0318 0.365742 13.7826C-0.186038 12.8509 -0.107032 11.7601 0.559087 11.1131C1.03299 10.6528 1.55624 10.452 2.28495 10.451C3.74559 10.4489 4.95353 11.602 5.94223 13.9424C6.54329 15.3652 7.01139 15.9974 7.73521 16.3638C8.35678 16.6785 8.91465 16.6729 9.60293 16.3449C10.9489 15.7037 11.6981 14.0287 12.1595 10.6288C12.3403 9.29677 12.6027 6.54951 12.7025 4.94465C12.8469 2.6203 13.1788 1.37701 13.8407 0.680537C14.2796 0.218645 14.7862 -0.000479541 15.4136 7.87918e-07C16.0216 0.000466245 16.391 0.182045 16.7491 0.656213C17.016 1.00972 17.1588 1.47794 17.1941 2.11533C17.2327 2.81256 17.2122 2.90983 16.4435 5.67528C15.805 7.9721 15.4831 9.86757 15.5314 11.0462C15.5636 11.83 15.6936 12.1441 16.084 12.3809C16.4105 12.579 16.7873 12.4915 17.1868 12.1251C17.5178 11.8214 17.767 11.3957 18.3857 10.0764C18.6904 9.42692 19.0551 8.65462 19.1961 8.36022C19.608 7.50036 19.7483 7.18913 20.3839 5.72509C21.0901 4.0984 21.3708 3.58351 21.8117 3.10557C22.7406 2.09878 24.1022 2.08677 24.7884 3.07931C24.9858 3.36477 25.1502 3.86053 25.1502 4.17019C25.1502 4.55563 24.9742 5.1498 24.6981 5.69651C24.5596 5.97071 24.0781 6.79119 23.6281 7.51978C22.203 9.82709 20.6916 12.5091 20.3824 13.2797C20.1613 13.8303 20.1332 14.222 20.2927 14.5256C20.3582 14.6502 20.4768 14.7993 20.5564 14.857C20.7646 15.0081 21.2027 15.0002 21.5387 14.8393C21.9159 14.6588 22.7948 13.7502 23.6886 12.6169C26.152 9.4934 26.67 8.90689 27.3791 8.43852C28.5191 7.68553 29.6235 7.83534 30.1035 8.80808C30.2295 9.06341 30.2469 9.15607 30.245 9.5582C30.2424 10.1105 30.136 10.4168 29.7442 11.0011C29.4149 11.4921 28.4119 12.5226 27.5078 13.2987C26.7064 13.9867 24.6622 15.9696 24.0428 16.6598C23.5124 17.2507 23.2845 17.6829 23.2821 18.1016C23.2792 18.6039 23.5764 18.8616 24.1587 18.8617C24.7625 18.8619 25.1921 18.6822 26.8663 17.7292C28.3123 16.9061 29.2887 16.3818 29.6418 16.239C30.747 15.7921 31.6587 16.2598 31.662 17.2752C31.6628 17.5335 31.631 17.6916 31.5348 17.9082C31.2073 18.645 30.7202 19.0051 28.5568 20.11C27.9651 20.4122 27.0315 20.8888 26.4821 21.1692C25.9327 21.4497 25.2425 21.8194 24.9484 21.991C23.9723 22.5603 23.3681 23.2791 22.4365 24.9793C21.0741 27.4656 19.7515 28.8255 17.748 29.8001C16.4067 30.4525 15.0074 30.7015 13.6524 30.5286ZM25.6625 29.5732C25.1324 29.4009 24.5775 28.9166 24.356 28.4332C23.6391 26.8686 24.9157 25.1162 26.5849 25.3733C27.741 25.5514 28.4945 26.5126 28.4172 27.7109C28.3714 28.4216 27.8922 29.1175 27.2249 29.4427C26.9483 29.5774 26.861 29.5935 26.354 29.6036C26.0441 29.6098 25.7329 29.5961 25.6625 29.5732Z" fill="#FB5229"/>
<path d="M7.99033 5.67676C8.23184 6.16485 8.62635 6.49086 9.15384 6.63824C9.23836 6.66192 9.48742 6.67266 9.7073 6.66229C10.6767 6.61649 11.3787 5.88882 11.3938 4.9142C11.3993 4.56172 11.3799 4.46769 11.2408 4.17175C10.6366 2.88695 9.00167 2.7026 8.15511 3.82382C7.89821 4.16406 7.82283 4.4136 7.82241 4.92751C7.82201 5.28739 7.84217 5.37736 7.99033 5.67676Z" fill="#FB5229"/>
<circle cx="20.4711" cy="31.3862" r="1.36474" fill="#FB5229"/>
</svg>
